<svg id="my-svg" width="100%" xmlns="http://www.w3.org/2000/svg" xmlns:xlink="http://www.w3.org/1999/xlink" class="classDiagram" style="max-width: 2509.24px; background-color: white;" viewBox="0 -48 2509.2421875 783" role="graphics-document document" aria-roledescription="class"><style>#my-svg{font-family:"trebuchet ms",verdana,arial,sans-serif;font-size:16px;fill:#000000;}@keyframes edge-animation-frame{from{stroke-dashoffset:0;}}@keyframes dash{to{stroke-dashoffset:0;}}#my-svg .edge-animation-slow{stroke-dasharray:9,5!important;stroke-dashoffset:900;animation:dash 50s linear infinite;stroke-linecap:round;}#my-svg .edge-animation-fast{stroke-dasharray:9,5!important;stroke-dashoffset:900;animation:dash 20s linear infinite;stroke-linecap:round;}#my-svg .error-icon{fill:#552222;}#my-svg .error-text{fill:#552222;stroke:#552222;}#my-svg .edge-thickness-normal{stroke-width:1px;}#my-svg .edge-thickness-thick{stroke-width:3.5px;}#my-svg .edge-pattern-solid{stroke-dasharray:0;}#my-svg .edge-thickness-invisible{stroke-width:0;fill:none;}#my-svg .edge-pattern-dashed{stroke-dasharray:3;}#my-svg .edge-pattern-dotted{stroke-dasharray:2;}#my-svg .marker{fill:#666;stroke:#666;}#my-svg .marker.cross{stroke:#666;}#my-svg svg{font-family:"trebuchet ms",verdana,arial,sans-serif;font-size:16px;}#my-svg p{margin:0;}#my-svg g.classGroup text{fill:#999;stroke:none;font-family:"trebuchet ms",verdana,arial,sans-serif;font-size:10px;}#my-svg g.classGroup text .title{font-weight:bolder;}#my-svg .cluster-label text{fill:#333;}#my-svg .cluster-label span{color:#333;}#my-svg .cluster-label span p{background-color:transparent;}#my-svg .cluster rect{fill:hsl(0, 0%, 98.9215686275%);stroke:#707070;stroke-width:1px;}#my-svg .cluster text{fill:#333;}#my-svg .cluster span{color:#333;}#my-svg .nodeLabel,#my-svg .edgeLabel{color:#111111;}#my-svg .noteLabel .nodeLabel,#my-svg .noteLabel .edgeLabel{color:#fff;}#my-svg .edgeLabel .label rect{fill:#eee;}#my-svg .label text{fill:#111111;}#my-svg .labelBkg{background:#eee;}#my-svg .edgeLabel .label span{background:#eee;}#my-svg .classTitle{font-weight:bolder;}#my-svg .node rect,#my-svg .node circle,#my-svg .node ellipse,#my-svg .node polygon,#my-svg .node path{fill:#eee;stroke:#999;stroke-width:1;}#my-svg .divider{stroke:#999;stroke-width:1;}#my-svg g.clickable{cursor:pointer;}#my-svg g.classGroup rect{fill:#eee;stroke:#999;}#my-svg g.classGroup line{stroke:#999;stroke-width:1;}#my-svg .classLabel .box{stroke:none;stroke-width:0;fill:#eee;opacity:0.5;}#my-svg .classLabel .label{fill:#999;font-size:10px;}#my-svg .relation{stroke:#666;stroke-width:1;fill:none;}#my-svg .dashed-line{stroke-dasharray:3;}#my-svg .dotted-line{stroke-dasharray:1 2;}#my-svg [id$="-compositionStart"],#my-svg .composition{fill:#666!important;stroke:#666!important;stroke-width:1;}#my-svg [id$="-compositionEnd"],#my-svg .composition{fill:#666!important;stroke:#666!important;stroke-width:1;}#my-svg [id$="-dependencyStart"],#my-svg .dependency{fill:#666!important;stroke:#666!important;stroke-width:1;}#my-svg [id$="-dependencyEnd"],#my-svg .dependency{fill:#666!important;stroke:#666!important;stroke-width:1;}#my-svg [id$="-extensionStart"],#my-svg .extension{fill:transparent!important;stroke:#666!important;stroke-width:1;}#my-svg [id$="-extensionEnd"],#my-svg .extension{fill:transparent!important;stroke:#666!important;stroke-width:1;}#my-svg [id$="-aggregationStart"],#my-svg .aggregation{fill:transparent!important;stroke:#666!important;stroke-width:1;}#my-svg [id$="-aggregationEnd"],#my-svg .aggregation{fill:transparent!important;stroke:#666!important;stroke-width:1;}#my-svg [id$="-lollipopStart"],#my-svg .lollipop{fill:#eee!important;stroke:#666!important;stroke-width:1;}#my-svg [id$="-lollipopEnd"],#my-svg .lollipop{fill:#eee!important;stroke:#666!important;stroke-width:1;}#my-svg .edgeTerminals{font-size:11px;line-height:initial;}#my-svg .classTitleText{text-anchor:middle;font-size:18px;fill:#000000;}#my-svg .edgeLabel[data-look="neo"]{background-color:white;text-align:center;}#my-svg .edgeLabel[data-look="neo"] p{background-color:white;}#my-svg .edgeLabel[data-look="neo"] rect{opacity:0.5;background-color:white;fill:white;}#my-svg .label-icon{display:inline-block;height:1em;overflow:visible;vertical-align:-0.125em;}#my-svg .node .label-icon path{fill:currentColor;stroke:revert;stroke-width:revert;}#my-svg .node .neo-node{stroke:#999;}#my-svg [data-look="neo"].node rect,#my-svg [data-look="neo"].cluster rect,#my-svg [data-look="neo"].node polygon{stroke:url(#my-svg-gradient);filter:drop-shadow( 1px 2px 2px rgba(185,185,185,1));}#my-svg [data-look="neo"].node path{stroke:url(#my-svg-gradient);stroke-width:1px;}#my-svg [data-look="neo"].node .outer-path{filter:drop-shadow( 1px 2px 2px rgba(185,185,185,1));}#my-svg [data-look="neo"].node .neo-line path{stroke:#999;filter:none;}#my-svg [data-look="neo"].node circle{stroke:url(#my-svg-gradient);filter:drop-shadow( 1px 2px 2px rgba(185,185,185,1));}#my-svg [data-look="neo"].node circle .state-start{fill:#000000;}#my-svg [data-look="neo"].icon-shape .icon{fill:url(#my-svg-gradient);filter:drop-shadow( 1px 2px 2px rgba(185,185,185,1));}#my-svg [data-look="neo"].icon-shape .icon-neo path{stroke:url(#my-svg-gradient);filter:drop-shadow( 1px 2px 2px rgba(185,185,185,1));}#my-svg :root{--mermaid-font-family:"trebuchet ms",verdana,arial,sans-serif;}</style><g><defs><marker id="my-svg_class-aggregationStart" class="marker aggregation class" refX="18" refY="7" markerWidth="190" markerHeight="240" orient="auto"><path d="M 18,7 L9,13 L1,7 L9,1 Z"/></marker></defs><defs><marker id="my-svg_class-aggregationEnd" class="marker aggregation class" refX="1" refY="7" markerWidth="20" markerHeight="28" orient="auto"><path d="M 18,7 L9,13 L1,7 L9,1 Z"/></marker></defs><defs><marker id="my-svg_class-aggregationStart-margin" class="marker aggregation class" refX="15" refY="7" markerWidth="190" markerHeight="240" orient="auto" markerUnits="userSpaceOnUse"><path d="M 18,7 L9,13 L1,7 L9,1 Z" style="stroke-width: 2;"/></marker></defs><defs><marker id="my-svg_class-aggregationEnd-margin" class="marker aggregation class" refX="1" refY="7" markerWidth="20" markerHeight="28" orient="auto" markerUnits="userSpaceOnUse"><path d="M 18,7 L9,13 L1,7 L9,1 Z" style="stroke-width: 2;"/></marker></defs><defs><marker id="my-svg_class-extensionStart" class="marker extension class" refX="18" refY="7" markerWidth="190" markerHeight="240" orient="auto" markerUnits="userSpaceOnUse"><path d="M 1,7 L18,13 V 1 Z"/></marker></defs><defs><marker id="my-svg_class-extensionEnd" class="marker extension class" refX="1" refY="7" markerWidth="20" markerHeight="28" orient="auto"><path d="M 1,1 V 13 L18,7 Z"/></marker></defs><marker id="my-svg_class-extensionStart-margin" class="marker extension class" refX="18" refY="7" markerWidth="20" markerHeight="28" orient="auto" markerUnits="userSpaceOnUse" viewBox="0 0 20 14"><polygon points="10,7 18,13 18,1" style="stroke-width: 2; stroke-dasharray: 0;"/></marker><defs><marker id="my-svg_class-extensionEnd-margin" class="marker extension class" refX="9" refY="7" markerWidth="20" markerHeight="28" orient="auto" markerUnits="userSpaceOnUse" viewBox="0 0 20 14"><polygon points="10,1 10,13 18,7" style="stroke-width: 2; stroke-dasharray: 0;"/></marker></defs><defs><marker id="my-svg_class-compositionStart" class="marker composition class" refX="18" refY="7" markerWidth="190" markerHeight="240" orient="auto"><path d="M 18,7 L9,13 L1,7 L9,1 Z"/></marker></defs><defs><marker id="my-svg_class-compositionEnd" class="marker composition class" refX="1" refY="7" markerWidth="20" markerHeight="28" orient="auto"><path d="M 18,7 L9,13 L1,7 L9,1 Z"/></marker></defs><defs><marker id="my-svg_class-compositionStart-margin" class="marker composition class" refX="15" refY="7" markerWidth="190" markerHeight="240" orient="auto" markerUnits="userSpaceOnUse"><path viewBox="0 0 15 15" d="M 18,7 L9,13 L1,7 L9,1 Z" style="stroke-width: 0;"/></marker></defs><defs><marker id="my-svg_class-compositionEnd-margin" class="marker composition class" refX="3.5" refY="7" markerWidth="20" markerHeight="28" orient="auto" markerUnits="userSpaceOnUse"><path d="M 18,7 L9,13 L1,7 L9,1 Z" style="stroke-width: 0;"/></marker></defs><defs><marker id="my-svg_class-dependencyStart" class="marker dependency class" refX="6" refY="7" markerWidth="190" markerHeight="240" orient="auto"><path d="M 5,7 L9,13 L1,7 L9,1 Z"/></marker></defs><defs><marker id="my-svg_class-dependencyEnd" class="marker dependency class" refX="13" refY="7" markerWidth="20" markerHeight="28" orient="auto"><path d="M 18,7 L9,13 L14,7 L9,1 Z"/></marker></defs><defs><marker id="my-svg_class-dependencyStart-margin" class="marker dependency class" refX="4" refY="7" markerWidth="190" markerHeight="240" orient="auto" markerUnits="userSpaceOnUse"><path d="M 5,7 L9,13 L1,7 L9,1 Z" style="stroke-width: 0;"/></marker></defs><defs><marker id="my-svg_class-dependencyEnd-margin" class="marker dependency class" refX="16" refY="7" markerWidth="20" markerHeight="28" orient="auto" markerUnits="userSpaceOnUse"><path d="M 18,7 L9,13 L14,7 L9,1 Z" style="stroke-width: 0;"/></marker></defs><defs><marker id="my-svg_class-lollipopStart" class="marker lollipop class" refX="13" refY="7" markerWidth="190" markerHeight="240" orient="auto"><circle fill="transparent" cx="7" cy="7" r="6"/></marker></defs><defs><marker id="my-svg_class-lollipopEnd" class="marker lollipop class" refX="1" refY="7" markerWidth="190" markerHeight="240" orient="auto"><circle fill="transparent" cx="7" cy="7" r="6"/></marker></defs><defs><marker id="my-svg_class-lollipopStart-margin" class="marker lollipop class" refX="13" refY="7" markerWidth="190" markerHeight="240" orient="auto" markerUnits="userSpaceOnUse"><circle fill="transparent" cx="7" cy="7" r="6" stroke-width="2"/></marker></defs><defs><marker id="my-svg_class-lollipopEnd-margin" class="marker lollipop class" refX="1" refY="7" markerWidth="190" markerHeight="240" orient="auto" markerUnits="userSpaceOnUse"><circle fill="transparent" cx="7" cy="7" r="6" stroke-width="2"/></marker></defs><g class="root"><g class="clusters"/><g class="edgePaths"><path d="M748.977,116L800.819,116C852.661,116,956.346,116,1038.594,116C1120.842,116,1181.654,116,1212.059,116L1242.465,116" id="my-svg-edgeNote0" class="edge-thickness-normal edge-pattern-dotted relation" style="fill: none;;;fill: none" data-edge="true" data-et="edge" data-id="edgeNote0" data-points="W3sieCI6NzQ4Ljk3NjU2MjUsInkiOjExNn0seyJ4IjoxMDYwLjAzMTI1LCJ5IjoxMTZ9LHsieCI6MTI0Mi40NjQ4NDM3NSwieSI6MTE2fV0=" data-look="classic"/><path d="M1035.031,559L1039.198,559C1043.365,559,1051.698,559,1078.716,559C1105.734,559,1151.438,559,1174.289,559L1197.141,559" id="my-svg-edgeNote1" class="edge-thickness-normal edge-pattern-dotted relation" style="fill: none;;;fill: none" data-edge="true" data-et="edge" data-id="edgeNote1" data-points="W3sieCI6MTAzNS4wMzEyNSwieSI6NTU5fSx7IngiOjEwNjAuMDMxMjUsInkiOjU1OX0seyJ4IjoxMTk3LjE0MDYyNSwieSI6NTU5fV0=" data-look="classic"/><path d="M1830.859,292L1848.988,292C1867.117,292,1903.375,292,1939.751,292.871C1976.126,293.742,2012.62,295.484,2030.867,296.355L2049.113,297.226" id="my-svg-edgeNote2" class="edge-thickness-normal edge-pattern-dotted relation" style="fill: none;;;fill: none" data-edge="true" data-et="edge" data-id="edgeNote2" data-points="W3sieCI6MTgzMC44NTkzNzUsInkiOjI5Mn0seyJ4IjoxOTM5LjYzMjgxMjUsInkiOjI5Mn0seyJ4IjoyMDQ5LjExMzI4MTI1LCJ5IjoyOTcuMjI1OTMyMDExNzkzNjV9XQ==" data-look="classic"/><path d="M1735.378,482.397L1769.42,472.998C1803.463,463.598,1871.548,444.799,1923.837,428.976C1976.126,413.153,2012.62,400.306,2030.867,393.882L2049.113,387.459" id="my-svg-id_PageHeaderConfig_PageHeaderAction_1" class="edge-thickness-normal edge-pattern-solid relation" style=";;;" data-edge="true" data-et="edge" data-id="id_PageHeaderConfig_PageHeaderAction_1" data-points="W3sieCI6MTcxOC43NSwieSI6NDg2Ljk4ODUzMzE1MTY4MDI2fSx7IngiOjE5MzkuNjMyODEyNSwieSI6NDI2fSx7IngiOjIwNDkuMTEzMjgxMjUsInkiOjM4Ny40NTg3NTE0MTMwMjE5Nn1d" data-look="classic" marker-start="url(#my-svg_class-compositionStart)"/><path d="M1718.75,570.912L1755.564,572.593C1792.378,574.274,1866.005,577.637,1919.948,579.319C1973.891,581,2008.148,581,2025.277,581L2042.406,581" id="my-svg-id_PageHeaderConfig_PageHeaderBadgeVariant_2" class="edge-thickness-normal edge-pattern-solid relation" style=";;;" data-edge="true" data-et="edge" data-id="id_PageHeaderConfig_PageHeaderBadgeVariant_2" data-points="W3sieCI6MTcxOC43NSwieSI6NTcwLjkxMTY3MTIwNzk5Mjh9LHsieCI6MTkzOS42MzI4MTI1LCJ5Ijo1ODF9LHsieCI6MjA0OC40MDYyNSwieSI6NTgxfV0=" data-look="classic" marker-end="url(#my-svg_class-dependencyEnd)"/></g><g class="edgeLabels"><g class="edgeLabel"><g class="label" data-id="edgeNote0" transform="translate(0, 0)"><foreignObject width="0" height="0"><div xmlns="http://www.w3.org/1999/xhtml" class="labelBkg" style="display: table-cell; white-space: nowrap; line-height: 1.5; max-width: 200px; text-align: center;"><span class="edgeLabel"></span></div></foreignObject></g></g><g class="edgeLabel"><g class="label" data-id="edgeNote1" transform="translate(0, 0)"><foreignObject width="0" height="0"><div xmlns="http://www.w3.org/1999/xhtml" class="labelBkg" style="display: table-cell; white-space: nowrap; line-height: 1.5; max-width: 200px; text-align: center;"><span class="edgeLabel"></span></div></foreignObject></g></g><g class="edgeLabel"><g class="label" data-id="edgeNote2" transform="translate(0, 0)"><foreignObject width="0" height="0"><div xmlns="http://www.w3.org/1999/xhtml" class="labelBkg" style="display: table-cell; white-space: nowrap; line-height: 1.5; max-width: 200px; text-align: center;"><span class="edgeLabel"></span></div></foreignObject></g></g><g class="edgeLabel" transform="translate(1885.13137, 441.04854)"><g class="label" data-id="id_PageHeaderConfig_PageHeaderAction_1" transform="translate(-83.7734375, -12)"><foreignObject width="167.546875" height="24"><div xmlns="http://www.w3.org/1999/xhtml" class="labelBkg" style="display: table-cell; white-space: nowrap; line-height: 1.5; max-width: 200px; text-align: center;"><span class="edgeLabel"><p>"primary + secondary[]"</p></span></div></foreignObject></g></g><g class="edgeLabel" transform="translate(1939.6328125, 581)"><g class="label" data-id="id_PageHeaderConfig_PageHeaderBadgeVariant_2" transform="translate(-54.890625, -12)"><foreignObject width="109.78125" height="24"><div xmlns="http://www.w3.org/1999/xhtml" class="labelBkg" style="display: table-cell; white-space: nowrap; line-height: 1.5; max-width: 200px; text-align: center;"><span class="edgeLabel"><p>"badge.variant"</p></span></div></foreignObject></g></g></g><g class="nodes"><g class="node default" id="my-svg-classId-BreadcrumbItem-0" data-look="classic" transform="translate(1457.9453125, 116)"><g class="basic label-container outer-path"><path d="M-215.48046875 -108 L215.48046875 -108 L215.48046875 108 L-215.48046875 108" stroke="none" stroke-width="0" fill="#eee" style=""/><path d="M-215.48046875 -108 C-56.76540671262765 -108, 101.9496553247447 -108, 215.48046875 -108 M-215.48046875 -108 C-56.78285854713377 -108, 101.91475165573246 -108, 215.48046875 -108 M215.48046875 -108 C215.48046875 -53.705773608252066, 215.48046875 0.5884527834958675, 215.48046875 108 M215.48046875 -108 C215.48046875 -36.955070559934356, 215.48046875 34.08985888013129, 215.48046875 108 M215.48046875 108 C54.04407673662695 108, -107.3923152767461 108, -215.48046875 108 M215.48046875 108 C59.975308275321936 108, -95.52985219935613 108, -215.48046875 108 M-215.48046875 108 C-215.48046875 24.608328975006827, -215.48046875 -58.783342049986345, -215.48046875 -108 M-215.48046875 108 C-215.48046875 24.242338970451428, -215.48046875 -59.515322059097144, -215.48046875 -108" stroke="#999" stroke-width="1.3" fill="none" stroke-dasharray="0 0" style=""/></g><g class="annotation-group text" transform="translate(-41.171875, -84)"><g class="label" style="" transform="translate(0,-12)"><foreignObject width="82.34375" height="24"><div xmlns="http://www.w3.org/1999/xhtml" style="display: table-cell; white-space: nowrap; line-height: 1.5; max-width: 122px; text-align: center;"><span class="nodeLabel markdown-node-label" style=""><p>«interface»</p></span></div></foreignObject></g></g><g class="label-group text" transform="translate(-62.3203125, -60)"><g class="label" style="font-weight: bolder" transform="translate(0,-12)"><foreignObject width="124.640625" height="24"><div xmlns="http://www.w3.org/1999/xhtml" style="display: table-cell; white-space: nowrap; line-height: 1.5; max-width: 160px; text-align: center;"><span class="nodeLabel markdown-node-label" style=""><p>BreadcrumbItem</p></span></div></foreignObject></g></g><g class="members-group text" transform="translate(-203.48046875, -12)"><g class="label" style="" transform="translate(0,-12)"><foreignObject width="144.78125" height="24"><div xmlns="http://www.w3.org/1999/xhtml" style="display: table-cell; white-space: nowrap; line-height: 1.5; max-width: 186px; text-align: center;"><span class="nodeLabel markdown-node-label" style=""><p>+readonly id : string</p></span></div></foreignObject></g><g class="label" style="" transform="translate(0,12)"><foreignObject width="166.796875" height="24"><div xmlns="http://www.w3.org/1999/xhtml" style="display: table-cell; white-space: nowrap; line-height: 1.5; max-width: 204px; text-align: center;"><span class="nodeLabel markdown-node-label" style=""><p>+readonly label : string</p></span></div></foreignObject></g><g class="label" style="" transform="translate(0,36)"><foreignObject width="344.640625" height="24"><div xmlns="http://www.w3.org/1999/xhtml" style="display: table-cell; white-space: nowrap; line-height: 1.5; max-width: 360px; text-align: center;"><span class="nodeLabel markdown-node-label" style=""><p>+readonly routePath? : readonly string[] | string</p></span></div></foreignObject></g><g class="label" style="" transform="translate(0,60)"><foreignObject width="167" height="24"><div xmlns="http://www.w3.org/1999/xhtml" style="display: table-cell; white-space: nowrap; line-height: 1.5; max-width: 208px; text-align: center;"><span class="nodeLabel markdown-node-label" style=""><p>+readonly icon? : string</p></span></div></foreignObject></g></g><g class="methods-group text" transform="translate(-203.48046875, 108)"/><g class="divider" style=""><path d="M-215.48046875 -36 C-57.16622851541612 -35.99963264828327, 101.14801171916776 -35.99926529656654, 215.48046875 -35.999 M-215.48046875 -36 C-83.19393665193445 -35.99969304287097, 49.0925954461311 -35.999386085741946, 215.48046875 -35.999" stroke="#999" stroke-width="1.3" fill="none" stroke-dasharray="0 0" style=""/></g><g class="divider" style=""><path d="M-215.48046875 84 C-115.99040796881577 84.00023085633087, -16.500347187631547 84.00046171266175, 215.48046875 84.001 M-215.48046875 84 C-84.08354505944484 84.00030489288531, 47.31337863111031 84.00060978577062, 215.48046875 84.001" stroke="#999" stroke-width="1.3" fill="none" stroke-dasharray="0 0" style=""/></g></g><g class="node default" id="my-svg-classId-PageHeaderConfig-1" data-look="classic" transform="translate(1457.9453125, 559)"><g class="basic label-container outer-path"><path d="M-260.8046875 -168 L260.8046875 -168 L260.8046875 168 L-260.8046875 168" stroke="none" stroke-width="0" fill="#eee" style=""/><path d="M-260.8046875 -168 C-69.71008062459885 -168, 121.38452625080231 -168, 260.8046875 -168 M-260.8046875 -168 C-96.21523596880965 -168, 68.3742155623807 -168, 260.8046875 -168 M260.8046875 -168 C260.8046875 -68.83784822582109, 260.8046875 30.32430354835782, 260.8046875 168 M260.8046875 -168 C260.8046875 -40.242784635192265, 260.8046875 87.51443072961547, 260.8046875 168 M260.8046875 168 C100.5517918361212 168, -59.701103827757606 168, -260.8046875 168 M260.8046875 168 C57.37867165408255 168, -146.0473441918349 168, -260.8046875 168 M-260.8046875 168 C-260.8046875 39.38063164880745, -260.8046875 -89.2387367023851, -260.8046875 -168 M-260.8046875 168 C-260.8046875 60.73431749579545, -260.8046875 -46.5313650084091, -260.8046875 -168" stroke="#999" stroke-width="1.3" fill="none" stroke-dasharray="0 0" style=""/></g><g class="annotation-group text" transform="translate(-41.171875, -144)"><g class="label" style="" transform="translate(0,-12)"><foreignObject width="82.34375" height="24"><div xmlns="http://www.w3.org/1999/xhtml" style="display: table-cell; white-space: nowrap; line-height: 1.5; max-width: 122px; text-align: center;"><span class="nodeLabel markdown-node-label" style=""><p>«interface»</p></span></div></foreignObject></g></g><g class="label-group text" transform="translate(-67.6875, -120)"><g class="label" style="font-weight: bolder" transform="translate(0,-12)"><foreignObject width="135.375" height="24"><div xmlns="http://www.w3.org/1999/xhtml" style="display: table-cell; white-space: nowrap; line-height: 1.5; max-width: 173px; text-align: center;"><span class="nodeLabel markdown-node-label" style=""><p>PageHeaderConfig</p></span></div></foreignObject></g></g><g class="members-group text" transform="translate(-248.8046875, -72)"><g class="label" style="" transform="translate(0,-12)"><foreignObject width="162" height="24"><div xmlns="http://www.w3.org/1999/xhtml" style="display: table-cell; white-space: nowrap; line-height: 1.5; max-width: 198px; text-align: center;"><span class="nodeLabel markdown-node-label" style=""><p>+readonly title : string</p></span></div></foreignObject></g><g class="label" style="" transform="translate(0,12)"><foreignObject width="192.015625" height="24"><div xmlns="http://www.w3.org/1999/xhtml" style="display: table-cell; white-space: nowrap; line-height: 1.5; max-width: 228px; text-align: center;"><span class="nodeLabel markdown-node-label" style=""><p>+readonly subtitle? : string</p></span></div></foreignObject></g><g class="label" style="" transform="translate(0,36)"><foreignObject width="167" height="24"><div xmlns="http://www.w3.org/1999/xhtml" style="display: table-cell; white-space: nowrap; line-height: 1.5; max-width: 208px; text-align: center;"><span class="nodeLabel markdown-node-label" style=""><p>+readonly icon? : string</p></span></div></foreignObject></g><g class="label" style="" transform="translate(0,60)"><foreignObject width="221.53125" height="24"><div xmlns="http://www.w3.org/1999/xhtml" style="display: table-cell; white-space: nowrap; line-height: 1.5; max-width: 254px; text-align: center;"><span class="nodeLabel markdown-node-label" style=""><p>+readonly badge.label? : string</p></span></div></foreignObject></g><g class="label" style="" transform="translate(0,84)"><foreignObject width="374.9375" height="24"><div xmlns="http://www.w3.org/1999/xhtml" style="display: table-cell; white-space: nowrap; line-height: 1.5; max-width: 396px; text-align: center;"><span class="nodeLabel markdown-node-label" style=""><p>+readonly badge.variant? : PageHeaderBadgeVariant</p></span></div></foreignObject></g><g class="label" style="" transform="translate(0,108)"><foreignObject width="328.28125" height="24"><div xmlns="http://www.w3.org/1999/xhtml" style="display: table-cell; white-space: nowrap; line-height: 1.5; max-width: 360px; text-align: center;"><span class="nodeLabel markdown-node-label" style=""><p>+readonly primaryAction? : PageHeaderAction</p></span></div></foreignObject></g><g class="label" style="" transform="translate(0,132)"><foreignObject width="429.921875" height="24"><div xmlns="http://www.w3.org/1999/xhtml" style="display: table-cell; white-space: nowrap; line-height: 1.5; max-width: 450px; text-align: center;"><span class="nodeLabel markdown-node-label" style=""><p>+readonly secondaryActions? : readonly PageHeaderAction[]</p></span></div></foreignObject></g><g class="label" style="" transform="translate(0,156)"><foreignObject width="348.734375" height="24"><div xmlns="http://www.w3.org/1999/xhtml" style="display: table-cell; white-space: nowrap; line-height: 1.5; max-width: 367px; text-align: center;"><span class="nodeLabel markdown-node-label" style=""><p>+readonly backRoute? : readonly string[] | string</p></span></div></foreignObject></g><g class="label" style="" transform="translate(0,180)"><foreignObject width="217.296875" height="24"><div xmlns="http://www.w3.org/1999/xhtml" style="display: table-cell; white-space: nowrap; line-height: 1.5; max-width: 254px; text-align: center;"><span class="nodeLabel markdown-node-label" style=""><p>+readonly helpTooltip? : string</p></span></div></foreignObject></g></g><g class="methods-group text" transform="translate(-248.8046875, 168)"/><g class="divider" style=""><path d="M-260.8046875 -96 C-118.80146141297368 -95.99972775944434, 23.20176467405264 -95.99945551888868, 260.8046875 -95.999 M-260.8046875 -96 C-121.80513162163956 -95.99973351791103, 17.19442425672088 -95.99946703582205, 260.8046875 -95.999" stroke="#999" stroke-width="1.3" fill="none" stroke-dasharray="0 0" style=""/></g><g class="divider" style=""><path d="M-260.8046875 144 C-83.16203695111187 144.00034056644506, 94.48061359777626 144.0006811328901, 260.8046875 144.001 M-260.8046875 144 C-145.2385645004951 144.00022155683646, -29.672441500990203 144.00044311367296, 260.8046875 144.001" stroke="#999" stroke-width="1.3" fill="none" stroke-dasharray="0 0" style=""/></g></g><g class="node default" id="my-svg-classId-PageHeaderAction-2" data-look="classic" transform="translate(2274.82421875, 308)"><g class="basic label-container outer-path"><path d="M-225.7109375 -144 L225.7109375 -144 L225.7109375 144 L-225.7109375 144" stroke="none" stroke-width="0" fill="#eee" style=""/><path d="M-225.7109375 -144 C-75.09333753376202 -144, 75.52426243247595 -144, 225.7109375 -144 M-225.7109375 -144 C-46.02848644466965 -144, 133.6539646106607 -144, 225.7109375 -144 M225.7109375 -144 C225.7109375 -60.08114542781706, 225.7109375 23.837709144365874, 225.7109375 144 M225.7109375 -144 C225.7109375 -65.850832680761, 225.7109375 12.298334638477996, 225.7109375 144 M225.7109375 144 C63.69953117197832 144, -98.31187515604336 144, -225.7109375 144 M225.7109375 144 C106.46729673747502 144, -12.776344025049951 144, -225.7109375 144 M-225.7109375 144 C-225.7109375 38.13704441280477, -225.7109375 -67.72591117439046, -225.7109375 -144 M-225.7109375 144 C-225.7109375 82.40439932112349, -225.7109375 20.80879864224697, -225.7109375 -144" stroke="#999" stroke-width="1.3" fill="none" stroke-dasharray="0 0" style=""/></g><g class="annotation-group text" transform="translate(-41.171875, -120)"><g class="label" style="" transform="translate(0,-12)"><foreignObject width="82.34375" height="24"><div xmlns="http://www.w3.org/1999/xhtml" style="display: table-cell; white-space: nowrap; line-height: 1.5; max-width: 122px; text-align: center;"><span class="nodeLabel markdown-node-label" style=""><p>«interface»</p></span></div></foreignObject></g></g><g class="label-group text" transform="translate(-68.15625, -96)"><g class="label" style="font-weight: bolder" transform="translate(0,-12)"><foreignObject width="136.3125" height="24"><div xmlns="http://www.w3.org/1999/xhtml" style="display: table-cell; white-space: nowrap; line-height: 1.5; max-width: 173px; text-align: center;"><span class="nodeLabel markdown-node-label" style=""><p>PageHeaderAction</p></span></div></foreignObject></g></g><g class="members-group text" transform="translate(-213.7109375, -48)"><g class="label" style="" transform="translate(0,-12)"><foreignObject width="166.796875" height="24"><div xmlns="http://www.w3.org/1999/xhtml" style="display: table-cell; white-space: nowrap; line-height: 1.5; max-width: 204px; text-align: center;"><span class="nodeLabel markdown-node-label" style=""><p>+readonly label : string</p></span></div></foreignObject></g><g class="label" style="" transform="translate(0,12)"><foreignObject width="167" height="24"><div xmlns="http://www.w3.org/1999/xhtml" style="display: table-cell; white-space: nowrap; line-height: 1.5; max-width: 208px; text-align: center;"><span class="nodeLabel markdown-node-label" style=""><p>+readonly icon? : string</p></span></div></foreignObject></g><g class="label" style="" transform="translate(0,36)"><foreignObject width="201.203125" height="24"><div xmlns="http://www.w3.org/1999/xhtml" style="display: table-cell; white-space: nowrap; line-height: 1.5; max-width: 239px; text-align: center;"><span class="nodeLabel markdown-node-label" style=""><p>+readonly actionKey : string</p></span></div></foreignObject></g><g class="label" style="" transform="translate(0,60)"><foreignObject width="213.125" height="24"><div xmlns="http://www.w3.org/1999/xhtml" style="display: table-cell; white-space: nowrap; line-height: 1.5; max-width: 249px; text-align: center;"><span class="nodeLabel markdown-node-label" style=""><p>+readonly disabled? : boolean</p></span></div></foreignObject></g><g class="label" style="" transform="translate(0,84)"><foreignObject width="205.453125" height="24"><div xmlns="http://www.w3.org/1999/xhtml" style="display: table-cell; white-space: nowrap; line-height: 1.5; max-width: 244px; text-align: center;"><span class="nodeLabel markdown-node-label" style=""><p>+readonly loading? : boolean</p></span></div></foreignObject></g><g class="label" style="" transform="translate(0,108)"><foreignObject width="312.5625" height="24"><div xmlns="http://www.w3.org/1999/xhtml" style="display: table-cell; white-space: nowrap; line-height: 1.5; max-width: 326px; text-align: center;"><span class="nodeLabel markdown-node-label" style=""><p>+readonly type? : 'button' | 'submit' | 'reset'</p></span></div></foreignObject></g><g class="label" style="" transform="translate(0,132)"><foreignObject width="359.265625" height="24"><div xmlns="http://www.w3.org/1999/xhtml" style="display: table-cell; white-space: nowrap; line-height: 1.5; max-width: 382px; text-align: center;"><span class="nodeLabel markdown-node-label" style=""><p>+readonly requiredPermissions? : readonly string[]</p></span></div></foreignObject></g></g><g class="methods-group text" transform="translate(-213.7109375, 144)"/><g class="divider" style=""><path d="M-225.7109375 -72 C-129.57385510049716 -71.99978703494952, -33.43677270099431 -71.99957406989903, 225.7109375 -71.999 M-225.7109375 -72 C-52.91988172190685 -71.99961722932505, 119.8711740561863 -71.99923445865011, 225.7109375 -71.999" stroke="#999" stroke-width="1.3" fill="none" stroke-dasharray="0 0" style=""/></g><g class="divider" style=""><path d="M-225.7109375 120 C-55.61398684642856 120.00037680263203, 114.48296380714288 120.00075360526405, 225.7109375 120.001 M-225.7109375 120 C-116.65927931702042 120.00024157371236, -7.607621134040841 120.00048314742472, 225.7109375 120.001" stroke="#999" stroke-width="1.3" fill="none" stroke-dasharray="0 0" style=""/></g></g><g class="node default" id="my-svg-classId-PageHeaderBadgeVariant-3" data-look="classic" transform="translate(2274.82421875, 581)"><g class="basic label-container outer-path"><path d="M-226.41796875 -72 L226.41796875 -72 L226.41796875 72 L-226.41796875 72" stroke="none" stroke-width="0" fill="#eee" style=""/><path d="M-226.41796875 -72 C-79.97309949829963 -72, 66.47176975340074 -72, 226.41796875 -72 M-226.41796875 -72 C-123.39467164628967 -72, -20.371374542579332 -72, 226.41796875 -72 M226.41796875 -72 C226.41796875 -28.30913328066341, 226.41796875 15.38173343867318, 226.41796875 72 M226.41796875 -72 C226.41796875 -41.20069317566297, 226.41796875 -10.40138635132594, 226.41796875 72 M226.41796875 72 C61.681457563876364 72, -103.05505362224727 72, -226.41796875 72 M226.41796875 72 C104.01968082328591 72, -18.37860710342818 72, -226.41796875 72 M-226.41796875 72 C-226.41796875 42.595975707493096, -226.41796875 13.191951414986185, -226.41796875 -72 M-226.41796875 72 C-226.41796875 25.126760200152354, -226.41796875 -21.74647959969529, -226.41796875 -72" stroke="#999" stroke-width="1.3" fill="none" stroke-dasharray="0 0" style=""/></g><g class="annotation-group text" transform="translate(-24.328125, -48)"><g class="label" style="" transform="translate(0,-12)"><foreignObject width="48.65625" height="24"><div xmlns="http://www.w3.org/1999/xhtml" style="display: table-cell; white-space: nowrap; line-height: 1.5; max-width: 94px; text-align: center;"><span class="nodeLabel markdown-node-label" style=""><p>«type»</p></span></div></foreignObject></g></g><g class="label-group text" transform="translate(-93.0703125, -24)"><g class="label" style="font-weight: bolder" transform="translate(0,-12)"><foreignObject width="186.140625" height="24"><div xmlns="http://www.w3.org/1999/xhtml" style="display: table-cell; white-space: nowrap; line-height: 1.5; max-width: 216px; text-align: center;"><span class="nodeLabel markdown-node-label" style=""><p>PageHeaderBadgeVariant</p></span></div></foreignObject></g></g><g class="members-group text" transform="translate(-214.41796875, 24)"><g class="label" style="" transform="translate(0,-12)"><foreignObject width="335.765625" height="24"><div xmlns="http://www.w3.org/1999/xhtml" style="display: table-cell; white-space: nowrap; line-height: 1.5; max-width: 338px; text-align: center;"><span class="nodeLabel markdown-node-label" style=""><p>'success' | 'warning' | 'danger' | 'info' | 'neutral'</p></span></div></foreignObject></g></g><g class="methods-group text" transform="translate(-214.41796875, 72)"/><g class="divider" style=""><path d="M-226.41796875 0 C-60.09828451241424 0.0003672846398980553, 106.22139972517152 0.0007345692797961106, 226.41796875 0.001 M-226.41796875 0 C-118.46345819123214 0.0002383965176323221, -10.50894763246427 0.0004767930352646442, 226.41796875 0.001" stroke="#999" stroke-width="1.3" fill="none" stroke-dasharray="0 0" style=""/></g><g class="divider" style=""><path d="M-226.41796875 48 C-52.46507269556807 48.000384141101996, 121.48782335886386 48.00076828220399, 226.41796875 48.001 M-226.41796875 48 C-69.55592825219298 48.00034639927512, 87.30611224561403 48.00069279855023, 226.41796875 48.001" stroke="#999" stroke-width="1.3" fill="none" stroke-dasharray="0 0" style=""/></g></g><g class="node undefined" id="my-svg-note0" data-look="classic" transform="translate(521.515625, 116)"><g class="basic label-container outer-path"><path d="M-227.4609375 -18 L227.4609375 -18 L227.4609375 18 L-227.4609375 18" stroke="none" stroke-width="0" fill="#666" style="fill:#666 !important;stroke:#999 !important"/><path d="M-227.4609375 -18 C-116.72863244860756 -18, -5.996327397215111 -18, 227.4609375 -18 M-227.4609375 -18 C-78.14529108290722 -18, 71.17035533418556 -18, 227.4609375 -18 M227.4609375 -18 C227.4609375 -8.616781717565397, 227.4609375 0.7664365648692062, 227.4609375 18 M227.4609375 -18 C227.4609375 -8.460338640535754, 227.4609375 1.0793227189284913, 227.4609375 18 M227.4609375 18 C64.41921375434814 18, -98.62250999130373 18, -227.4609375 18 M227.4609375 18 C73.85824176385609 18, -79.74445397228783 18, -227.4609375 18 M-227.4609375 18 C-227.4609375 9.876368497998781, -227.4609375 1.7527369959975623, -227.4609375 -18 M-227.4609375 18 C-227.4609375 5.432305327276865, -227.4609375 -7.135389345446271, -227.4609375 -18" stroke="#999" stroke-width="1.3" fill="none" stroke-dasharray="0 0" style="fill:#666 !important;stroke:#999 !important"/></g><g class="label noteLabel" style="text-align:left !important;white-space:nowrap !important" transform="translate(-221.4609375, -12)"><rect/><foreignObject width="442.921875" height="24"><div style="text-align: center; white-space: break-spaces; display: table; line-height: 1.5; max-width: 200px; width: 200px;" xmlns="http://www.w3.org/1999/xhtml"><span style="text-align:left !important;white-space:nowrap !important" class="nodeLabel markdown-node-label"><p>Last item omits routePath\n(it's the current page — non-link).</p></span></div></foreignObject></g></g><g class="node undefined" id="my-svg-note1" data-look="classic" transform="translate(521.515625, 559)"><g class="basic label-container outer-path"><path d="M-513.515625 -18 L513.515625 -18 L513.515625 18 L-513.515625 18" stroke="none" stroke-width="0" fill="#666" style="fill:#666 !important;stroke:#999 !important"/><path d="M-513.515625 -18 C-251.75161035713234 -18, 10.012404285735329 -18, 513.515625 -18 M-513.515625 -18 C-182.6787949607873 -18, 148.15803507842543 -18, 513.515625 -18 M513.515625 -18 C513.515625 -8.182718017799994, 513.515625 1.6345639644000123, 513.515625 18 M513.515625 -18 C513.515625 -4.737759618272705, 513.515625 8.52448076345459, 513.515625 18 M513.515625 18 C207.02058742356184 18, -99.47445015287633 18, -513.515625 18 M513.515625 18 C182.1805859581226 18, -149.1544530837548 18, -513.515625 18 M-513.515625 18 C-513.515625 7.231164264900288, -513.515625 -3.537671470199424, -513.515625 -18 M-513.515625 18 C-513.515625 4.449256144203893, -513.515625 -9.101487711592213, -513.515625 -18" stroke="#999" stroke-width="1.3" fill="none" stroke-dasharray="0 0" style="fill:#666 !important;stroke:#999 !important"/></g><g class="label noteLabel" style="text-align:left !important;white-space:nowrap !important" transform="translate(-507.515625, -12)"><rect/><foreignObject width="1015.03125" height="24"><div style="text-align: center; white-space: break-spaces; display: table; line-height: 1.5; max-width: 200px; width: 200px;" xmlns="http://www.w3.org/1999/xhtml"><span style="text-align:left !important;white-space:nowrap !important" class="nodeLabel markdown-node-label"><p>RouteMetadata.pageHeader carries this\nas Route.data for the orchestrator.\nPages can also push dynamically via\nPageHeaderService.set().</p></span></div></foreignObject></g></g><g class="node undefined" id="my-svg-note2" data-look="classic" transform="translate(1457.9453125, 292)"><g class="basic label-container outer-path"><path d="M-372.9140625 -18 L372.9140625 -18 L372.9140625 18 L-372.9140625 18" stroke="none" stroke-width="0" fill="#666" style="fill:#666 !important;stroke:#999 !important"/><path d="M-372.9140625 -18 C-186.83334588510098 -18, -0.7526292702019646 -18, 372.9140625 -18 M-372.9140625 -18 C-121.17186253472244 -18, 130.57033743055513 -18, 372.9140625 -18 M372.9140625 -18 C372.9140625 -6.7208785693711945, 372.9140625 4.558242861257611, 372.9140625 18 M372.9140625 -18 C372.9140625 -4.196630701905345, 372.9140625 9.60673859618931, 372.9140625 18 M372.9140625 18 C170.05826608570015 18, -32.79753032859969 18, -372.9140625 18 M372.9140625 18 C145.8045289009553 18, -81.30500469808942 18, -372.9140625 18 M-372.9140625 18 C-372.9140625 6.57599989844633, -372.9140625 -4.84800020310734, -372.9140625 -18 M-372.9140625 18 C-372.9140625 5.163188316740454, -372.9140625 -7.673623366519092, -372.9140625 -18" stroke="#999" stroke-width="1.3" fill="none" stroke-dasharray="0 0" style="fill:#666 !important;stroke:#999 !important"/></g><g class="label noteLabel" style="text-align:left !important;white-space:nowrap !important" transform="translate(-366.9140625, -12)"><rect/><foreignObject width="733.828125" height="24"><div style="text-align: center; white-space: break-spaces; display: table; line-height: 1.5; max-width: 200px; width: 200px;" xmlns="http://www.w3.org/1999/xhtml"><span style="text-align:left !important;white-space:nowrap !important" class="nodeLabel markdown-node-label"><p>actionKey emitted via (action) — host\npages own the side-effect; the\npage-header is dumb chrome.</p></span></div></foreignObject></g></g></g></g></g><defs><filter id="my-svg-drop-shadow" height="130%" width="130%"><feDropShadow dx="4" dy="4" stdDeviation="0" flood-opacity="0.06" flood-color="#000000"/></filter></defs><defs><filter id="my-svg-drop-shadow-small" height="150%" width="150%"><feDropShadow dx="2" dy="2" stdDeviation="0" flood-opacity="0.06" flood-color="#000000"/></filter></defs><linearGradient id="my-svg-gradient" gradientUnits="objectBoundingBox" x1="0%" y1="0%" x2="100%" y2="0%"><stop offset="0%" stop-color="hsl(0, 0%, 83.3333333333%)" stop-opacity="1"/><stop offset="100%" stop-color="hsl(0, 0%, 88.9215686275%)" stop-opacity="1"/></linearGradient><text text-anchor="middle" x="1254.62109375" y="-25" class="classDiagramTitleText">Sub-Nav — Breadcrumb + Page Header</text></svg>