<svg id="my-svg" width="100%" xmlns="http://www.w3.org/2000/svg" xmlns:xlink="http://www.w3.org/1999/xlink" class="classDiagram" style="max-width: 3371.63px; background-color: white;" viewBox="0 -48 3371.6328125 680" role="graphics-document document" aria-roledescription="class"><style>#my-svg{font-family:"trebuchet ms",verdana,arial,sans-serif;font-size:16px;fill:#000000;}@keyframes edge-animation-frame{from{stroke-dashoffset:0;}}@keyframes dash{to{stroke-dashoffset:0;}}#my-svg .edge-animation-slow{stroke-dasharray:9,5!important;stroke-dashoffset:900;animation:dash 50s linear infinite;stroke-linecap:round;}#my-svg .edge-animation-fast{stroke-dasharray:9,5!important;stroke-dashoffset:900;animation:dash 20s linear infinite;stroke-linecap:round;}#my-svg .error-icon{fill:#552222;}#my-svg .error-text{fill:#552222;stroke:#552222;}#my-svg .edge-thickness-normal{stroke-width:1px;}#my-svg .edge-thickness-thick{stroke-width:3.5px;}#my-svg .edge-pattern-solid{stroke-dasharray:0;}#my-svg .edge-thickness-invisible{stroke-width:0;fill:none;}#my-svg .edge-pattern-dashed{stroke-dasharray:3;}#my-svg .edge-pattern-dotted{stroke-dasharray:2;}#my-svg .marker{fill:#666;stroke:#666;}#my-svg .marker.cross{stroke:#666;}#my-svg svg{font-family:"trebuchet ms",verdana,arial,sans-serif;font-size:16px;}#my-svg p{margin:0;}#my-svg g.classGroup text{fill:#999;stroke:none;font-family:"trebuchet ms",verdana,arial,sans-serif;font-size:10px;}#my-svg g.classGroup text .title{font-weight:bolder;}#my-svg .cluster-label text{fill:#333;}#my-svg .cluster-label span{color:#333;}#my-svg .cluster-label span p{background-color:transparent;}#my-svg .cluster rect{fill:hsl(0, 0%, 98.9215686275%);stroke:#707070;stroke-width:1px;}#my-svg .cluster text{fill:#333;}#my-svg .cluster span{color:#333;}#my-svg .nodeLabel,#my-svg .edgeLabel{color:#111111;}#my-svg .noteLabel .nodeLabel,#my-svg .noteLabel .edgeLabel{color:#fff;}#my-svg .edgeLabel .label rect{fill:#eee;}#my-svg .label text{fill:#111111;}#my-svg .labelBkg{background:#eee;}#my-svg .edgeLabel .label span{background:#eee;}#my-svg .classTitle{font-weight:bolder;}#my-svg .node rect,#my-svg .node circle,#my-svg .node ellipse,#my-svg .node polygon,#my-svg .node path{fill:#eee;stroke:#999;stroke-width:1;}#my-svg .divider{stroke:#999;stroke-width:1;}#my-svg g.clickable{cursor:pointer;}#my-svg g.classGroup rect{fill:#eee;stroke:#999;}#my-svg g.classGroup line{stroke:#999;stroke-width:1;}#my-svg .classLabel .box{stroke:none;stroke-width:0;fill:#eee;opacity:0.5;}#my-svg .classLabel .label{fill:#999;font-size:10px;}#my-svg .relation{stroke:#666;stroke-width:1;fill:none;}#my-svg .dashed-line{stroke-dasharray:3;}#my-svg .dotted-line{stroke-dasharray:1 2;}#my-svg [id$="-compositionStart"],#my-svg .composition{fill:#666!important;stroke:#666!important;stroke-width:1;}#my-svg [id$="-compositionEnd"],#my-svg .composition{fill:#666!important;stroke:#666!important;stroke-width:1;}#my-svg [id$="-dependencyStart"],#my-svg .dependency{fill:#666!important;stroke:#666!important;stroke-width:1;}#my-svg [id$="-dependencyEnd"],#my-svg .dependency{fill:#666!important;stroke:#666!important;stroke-width:1;}#my-svg [id$="-extensionStart"],#my-svg .extension{fill:transparent!important;stroke:#666!important;stroke-width:1;}#my-svg [id$="-extensionEnd"],#my-svg .extension{fill:transparent!important;stroke:#666!important;stroke-width:1;}#my-svg [id$="-aggregationStart"],#my-svg .aggregation{fill:transparent!important;stroke:#666!important;stroke-width:1;}#my-svg [id$="-aggregationEnd"],#my-svg .aggregation{fill:transparent!important;stroke:#666!important;stroke-width:1;}#my-svg [id$="-lollipopStart"],#my-svg .lollipop{fill:#eee!important;stroke:#666!important;stroke-width:1;}#my-svg [id$="-lollipopEnd"],#my-svg .lollipop{fill:#eee!important;stroke:#666!important;stroke-width:1;}#my-svg .edgeTerminals{font-size:11px;line-height:initial;}#my-svg .classTitleText{text-anchor:middle;font-size:18px;fill:#000000;}#my-svg .edgeLabel[data-look="neo"]{background-color:white;text-align:center;}#my-svg .edgeLabel[data-look="neo"] p{background-color:white;}#my-svg .edgeLabel[data-look="neo"] rect{opacity:0.5;background-color:white;fill:white;}#my-svg .label-icon{display:inline-block;height:1em;overflow:visible;vertical-align:-0.125em;}#my-svg .node .label-icon path{fill:currentColor;stroke:revert;stroke-width:revert;}#my-svg .node .neo-node{stroke:#999;}#my-svg [data-look="neo"].node rect,#my-svg [data-look="neo"].cluster rect,#my-svg [data-look="neo"].node polygon{stroke:url(#my-svg-gradient);filter:drop-shadow( 1px 2px 2px rgba(185,185,185,1));}#my-svg [data-look="neo"].node path{stroke:url(#my-svg-gradient);stroke-width:1px;}#my-svg [data-look="neo"].node .outer-path{filter:drop-shadow( 1px 2px 2px rgba(185,185,185,1));}#my-svg [data-look="neo"].node .neo-line path{stroke:#999;filter:none;}#my-svg [data-look="neo"].node circle{stroke:url(#my-svg-gradient);filter:drop-shadow( 1px 2px 2px rgba(185,185,185,1));}#my-svg [data-look="neo"].node circle .state-start{fill:#000000;}#my-svg [data-look="neo"].icon-shape .icon{fill:url(#my-svg-gradient);filter:drop-shadow( 1px 2px 2px rgba(185,185,185,1));}#my-svg [data-look="neo"].icon-shape .icon-neo path{stroke:url(#my-svg-gradient);filter:drop-shadow( 1px 2px 2px rgba(185,185,185,1));}#my-svg :root{--mermaid-font-family:"trebuchet ms",verdana,arial,sans-serif;}</style><g><defs><marker id="my-svg_class-aggregationStart" class="marker aggregation class" refX="18" refY="7" markerWidth="190" markerHeight="240" orient="auto"><path d="M 18,7 L9,13 L1,7 L9,1 Z"/></marker></defs><defs><marker id="my-svg_class-aggregationEnd" class="marker aggregation class" refX="1" refY="7" markerWidth="20" markerHeight="28" orient="auto"><path d="M 18,7 L9,13 L1,7 L9,1 Z"/></marker></defs><defs><marker id="my-svg_class-aggregationStart-margin" class="marker aggregation class" refX="15" refY="7" markerWidth="190" markerHeight="240" orient="auto" markerUnits="userSpaceOnUse"><path d="M 18,7 L9,13 L1,7 L9,1 Z" style="stroke-width: 2;"/></marker></defs><defs><marker id="my-svg_class-aggregationEnd-margin" class="marker aggregation class" refX="1" refY="7" markerWidth="20" markerHeight="28" orient="auto" markerUnits="userSpaceOnUse"><path d="M 18,7 L9,13 L1,7 L9,1 Z" style="stroke-width: 2;"/></marker></defs><defs><marker id="my-svg_class-extensionStart" class="marker extension class" refX="18" refY="7" markerWidth="190" markerHeight="240" orient="auto" markerUnits="userSpaceOnUse"><path d="M 1,7 L18,13 V 1 Z"/></marker></defs><defs><marker id="my-svg_class-extensionEnd" class="marker extension class" refX="1" refY="7" markerWidth="20" markerHeight="28" orient="auto"><path d="M 1,1 V 13 L18,7 Z"/></marker></defs><marker id="my-svg_class-extensionStart-margin" class="marker extension class" refX="18" refY="7" markerWidth="20" markerHeight="28" orient="auto" markerUnits="userSpaceOnUse" viewBox="0 0 20 14"><polygon points="10,7 18,13 18,1" style="stroke-width: 2; stroke-dasharray: 0;"/></marker><defs><marker id="my-svg_class-extensionEnd-margin" class="marker extension class" refX="9" refY="7" markerWidth="20" markerHeight="28" orient="auto" markerUnits="userSpaceOnUse" viewBox="0 0 20 14"><polygon points="10,1 10,13 18,7" style="stroke-width: 2; stroke-dasharray: 0;"/></marker></defs><defs><marker id="my-svg_class-compositionStart" class="marker composition class" refX="18" refY="7" markerWidth="190" markerHeight="240" orient="auto"><path d="M 18,7 L9,13 L1,7 L9,1 Z"/></marker></defs><defs><marker id="my-svg_class-compositionEnd" class="marker composition class" refX="1" refY="7" markerWidth="20" markerHeight="28" orient="auto"><path d="M 18,7 L9,13 L1,7 L9,1 Z"/></marker></defs><defs><marker id="my-svg_class-compositionStart-margin" class="marker composition class" refX="15" refY="7" markerWidth="190" markerHeight="240" orient="auto" markerUnits="userSpaceOnUse"><path viewBox="0 0 15 15" d="M 18,7 L9,13 L1,7 L9,1 Z" style="stroke-width: 0;"/></marker></defs><defs><marker id="my-svg_class-compositionEnd-margin" class="marker composition class" refX="3.5" refY="7" markerWidth="20" markerHeight="28" orient="auto" markerUnits="userSpaceOnUse"><path d="M 18,7 L9,13 L1,7 L9,1 Z" style="stroke-width: 0;"/></marker></defs><defs><marker id="my-svg_class-dependencyStart" class="marker dependency class" refX="6" refY="7" markerWidth="190" markerHeight="240" orient="auto"><path d="M 5,7 L9,13 L1,7 L9,1 Z"/></marker></defs><defs><marker id="my-svg_class-dependencyEnd" class="marker dependency class" refX="13" refY="7" markerWidth="20" markerHeight="28" orient="auto"><path d="M 18,7 L9,13 L14,7 L9,1 Z"/></marker></defs><defs><marker id="my-svg_class-dependencyStart-margin" class="marker dependency class" refX="4" refY="7" markerWidth="190" markerHeight="240" orient="auto" markerUnits="userSpaceOnUse"><path d="M 5,7 L9,13 L1,7 L9,1 Z" style="stroke-width: 0;"/></marker></defs><defs><marker id="my-svg_class-dependencyEnd-margin" class="marker dependency class" refX="16" refY="7" markerWidth="20" markerHeight="28" orient="auto" markerUnits="userSpaceOnUse"><path d="M 18,7 L9,13 L14,7 L9,1 Z" style="stroke-width: 0;"/></marker></defs><defs><marker id="my-svg_class-lollipopStart" class="marker lollipop class" refX="13" refY="7" markerWidth="190" markerHeight="240" orient="auto"><circle fill="transparent" cx="7" cy="7" r="6"/></marker></defs><defs><marker id="my-svg_class-lollipopEnd" class="marker lollipop class" refX="1" refY="7" markerWidth="190" markerHeight="240" orient="auto"><circle fill="transparent" cx="7" cy="7" r="6"/></marker></defs><defs><marker id="my-svg_class-lollipopStart-margin" class="marker lollipop class" refX="13" refY="7" markerWidth="190" markerHeight="240" orient="auto" markerUnits="userSpaceOnUse"><circle fill="transparent" cx="7" cy="7" r="6" stroke-width="2"/></marker></defs><defs><marker id="my-svg_class-lollipopEnd-margin" class="marker lollipop class" refX="1" refY="7" markerWidth="190" markerHeight="240" orient="auto" markerUnits="userSpaceOnUse"><circle fill="transparent" cx="7" cy="7" r="6" stroke-width="2"/></marker></defs><g class="root"><g class="clusters"/><g class="edgePaths"><path d="M1146.828,280L1150.995,280C1155.161,280,1163.495,280,1171.828,280C1180.161,280,1188.495,280,1192.661,280L1196.828,280" id="my-svg-edgeNote0" class="edge-thickness-normal edge-pattern-dotted relation" style="fill: none;;;fill: none" data-edge="true" data-et="edge" data-id="edgeNote0" data-points="W3sieCI6MTE0Ni44MjgxMjUsInkiOjI4MH0seyJ4IjoxMTcxLjgyODEyNSwieSI6MjgwfSx7IngiOjExOTYuODI4MTI1LCJ5IjoyODB9XQ==" data-look="classic"/><path d="M2859.086,244L2872.31,244C2885.534,244,2911.982,244,2938.43,249.871C2964.878,255.742,2991.326,267.484,3004.549,273.355L3017.773,279.226" id="my-svg-edgeNote1" class="edge-thickness-normal edge-pattern-dotted relation" style="fill: none;;;fill: none" data-edge="true" data-et="edge" data-id="edgeNote1" data-points="W3sieCI6Mjg1OS4wODU5Mzc1LCJ5IjoyNDR9LHsieCI6MjkzOC40Mjk2ODc1LCJ5IjoyNDR9LHsieCI6MzAxNy43NzM0Mzc1LCJ5IjoyNzkuMjI1NjY2NTk0NDA3MTN9XQ==" data-look="classic"/><path d="M1672.523,132.893L1683.543,126.077C1694.563,119.262,1716.602,105.631,1803.007,98.815C1889.413,92,2040.185,92,2115.571,92L2190.957,92" id="my-svg-id_ChartWidgetConfig_ChartWidgetType_1" class="edge-thickness-normal edge-pattern-solid relation" style=";;;" data-edge="true" data-et="edge" data-id="id_ChartWidgetConfig_ChartWidgetType_1" data-points="W3sieCI6MTY3Mi41MjM0Mzc1LCJ5IjoxMzIuODkyOTg5NzgzNDYwNzZ9LHsieCI6MTczOC42NDA2MjUsInkiOjkyfSx7IngiOjIxOTYuOTU3MDMxMjUsInkiOjkyfV0=" data-look="classic" marker-end="url(#my-svg_class-dependencyEnd)"/><path d="M1687.194,436.181L1695.769,441.484C1704.343,446.787,1721.492,457.394,1799.293,462.697C1877.095,468,2015.549,468,2084.777,468L2154.004,468" id="my-svg-id_ChartWidgetConfig_ChartWidgetDataset_2" class="edge-thickness-normal edge-pattern-solid relation" style=";;;" data-edge="true" data-et="edge" data-id="id_ChartWidgetConfig_ChartWidgetDataset_2" data-points="W3sieCI6MTY3Mi41MjM0Mzc1LCJ5Ijo0MjcuMTA3MDEwMjE2NTM5Mjd9LHsieCI6MTczOC42NDA2MjUsInkiOjQ2OH0seyJ4IjoyMTU0LjAwMzkwNjI1LCJ5Ijo0Njh9XQ==" data-look="classic" marker-start="url(#my-svg_class-compositionStart)"/><path d="M2509.84,468L2581.271,468C2652.703,468,2795.566,468,2879.308,462.535C2963.05,457.07,2987.67,446.139,2999.98,440.674L3012.29,435.209" id="my-svg-id_ChartWidgetDataset_CHART_PALETTE_TOKENS_3" class="edge-thickness-normal edge-pattern-solid relation" style=";;;" data-edge="true" data-et="edge" data-id="id_ChartWidgetDataset_CHART_PALETTE_TOKENS_3" data-points="W3sieCI6MjUwOS44Mzk4NDM3NSwieSI6NDY4fSx7IngiOjI5MzguNDI5Njg3NSwieSI6NDY4fSx7IngiOjMwMTcuNzczNDM3NSwieSI6NDMyLjc3NDMzMzQwNTU5Mjg3fV0=" data-look="classic" marker-end="url(#my-svg_class-dependencyEnd)"/></g><g class="edgeLabels"><g class="edgeLabel"><g class="label" data-id="edgeNote0" transform="translate(0, 0)"><foreignObject width="0" height="0"><div xmlns="http://www.w3.org/1999/xhtml" class="labelBkg" style="display: table-cell; white-space: nowrap; line-height: 1.5; max-width: 200px; text-align: center;"><span class="edgeLabel"></span></div></foreignObject></g></g><g class="edgeLabel"><g class="label" data-id="edgeNote1" transform="translate(0, 0)"><foreignObject width="0" height="0"><div xmlns="http://www.w3.org/1999/xhtml" class="labelBkg" style="display: table-cell; white-space: nowrap; line-height: 1.5; max-width: 200px; text-align: center;"><span class="edgeLabel"></span></div></foreignObject></g></g><g class="edgeLabel" transform="translate(1738.640625, 92)"><g class="label" data-id="id_ChartWidgetConfig_ChartWidgetType_1" transform="translate(-21.1328125, -12)"><foreignObject width="42.265625" height="24"><div xmlns="http://www.w3.org/1999/xhtml" class="labelBkg" style="display: table-cell; white-space: nowrap; line-height: 1.5; max-width: 200px; text-align: center;"><span class="edgeLabel"><p>"type"</p></span></div></foreignObject></g></g><g class="edgeLabel" transform="translate(1738.640625, 468)"><g class="label" data-id="id_ChartWidgetConfig_ChartWidgetDataset_2" transform="translate(-41.1171875, -12)"><foreignObject width="82.234375" height="24"><div xmlns="http://www.w3.org/1999/xhtml" class="labelBkg" style="display: table-cell; white-space: nowrap; line-height: 1.5; max-width: 200px; text-align: center;"><span class="edgeLabel"><p>"datasets[]"</p></span></div></foreignObject></g></g><g class="edgeLabel" transform="translate(2938.4296875, 468)"><g class="label" data-id="id_ChartWidgetDataset_CHART_PALETTE_TOKENS_3" transform="translate(-54.34375, -12)"><foreignObject width="108.6875" height="24"><div xmlns="http://www.w3.org/1999/xhtml" class="labelBkg" style="display: table-cell; white-space: nowrap; line-height: 1.5; max-width: 200px; text-align: center;"><span class="edgeLabel"><p>"auto-assigned"</p></span></div></foreignObject></g></g></g><g class="nodes"><g class="node default" id="my-svg-classId-ChartWidgetConfig-0" data-look="classic" transform="translate(1434.67578125, 280)"><g class="basic label-container outer-path"><path d="M-237.84765625 -192 L237.84765625 -192 L237.84765625 192 L-237.84765625 192" stroke="none" stroke-width="0" fill="#eee" style=""/><path d="M-237.84765625 -192 C-102.8765456585513 -192, 32.09456493289741 -192, 237.84765625 -192 M-237.84765625 -192 C-79.74580024584515 -192, 78.35605575830971 -192, 237.84765625 -192 M237.84765625 -192 C237.84765625 -92.09071905139896, 237.84765625 7.818561897202073, 237.84765625 192 M237.84765625 -192 C237.84765625 -55.113896815791406, 237.84765625 81.77220636841719, 237.84765625 192 M237.84765625 192 C124.54019464502456 192, 11.232733040049112 192, -237.84765625 192 M237.84765625 192 C117.75780081098561 192, -2.3320546280287715 192, -237.84765625 192 M-237.84765625 192 C-237.84765625 64.72352886572466, -237.84765625 -62.55294226855068, -237.84765625 -192 M-237.84765625 192 C-237.84765625 44.975755071556705, -237.84765625 -102.04848985688659, -237.84765625 -192" stroke="#999" stroke-width="1.3" fill="none" stroke-dasharray="0 0" style=""/></g><g class="annotation-group text" transform="translate(-41.171875, -168)"><g class="label" style="" transform="translate(0,-12)"><foreignObject width="82.34375" height="24"><div xmlns="http://www.w3.org/1999/xhtml" style="display: table-cell; white-space: nowrap; line-height: 1.5; max-width: 122px; text-align: center;"><span class="nodeLabel markdown-node-label" style=""><p>«interface»</p></span></div></foreignObject></g></g><g class="label-group text" transform="translate(-69.8828125, -144)"><g class="label" style="font-weight: bolder" transform="translate(0,-12)"><foreignObject width="139.765625" height="24"><div xmlns="http://www.w3.org/1999/xhtml" style="display: table-cell; white-space: nowrap; line-height: 1.5; max-width: 176px; text-align: center;"><span class="nodeLabel markdown-node-label" style=""><p>ChartWidgetConfig</p></span></div></foreignObject></g></g><g class="members-group text" transform="translate(-225.84765625, -96)"><g class="label" style="" transform="translate(0,-12)"><foreignObject width="245.0625" height="24"><div xmlns="http://www.w3.org/1999/xhtml" style="display: table-cell; white-space: nowrap; line-height: 1.5; max-width: 278px; text-align: center;"><span class="nodeLabel markdown-node-label" style=""><p>+readonly type : ChartWidgetType</p></span></div></foreignObject></g><g class="label" style="" transform="translate(0,12)"><foreignObject width="167.875" height="24"><div xmlns="http://www.w3.org/1999/xhtml" style="display: table-cell; white-space: nowrap; line-height: 1.5; max-width: 205px; text-align: center;"><span class="nodeLabel markdown-node-label" style=""><p>+readonly title? : string</p></span></div></foreignObject></g><g class="label" style="" transform="translate(0,36)"><foreignObject width="192.015625" height="24"><div xmlns="http://www.w3.org/1999/xhtml" style="display: table-cell; white-space: nowrap; line-height: 1.5; max-width: 228px; text-align: center;"><span class="nodeLabel markdown-node-label" style=""><p>+readonly subtitle? : string</p></span></div></foreignObject></g><g class="label" style="" transform="translate(0,60)"><foreignObject width="252.046875" height="24"><div xmlns="http://www.w3.org/1999/xhtml" style="display: table-cell; white-space: nowrap; line-height: 1.5; max-width: 281px; text-align: center;"><span class="nodeLabel markdown-node-label" style=""><p>+readonly labels : readonly string[]</p></span></div></foreignObject></g><g class="label" style="" transform="translate(0,84)"><foreignObject width="373.59375" height="24"><div xmlns="http://www.w3.org/1999/xhtml" style="display: table-cell; white-space: nowrap; line-height: 1.5; max-width: 388px; text-align: center;"><span class="nodeLabel markdown-node-label" style=""><p>+readonly datasets : readonly ChartWidgetDataset[]</p></span></div></foreignObject></g><g class="label" style="" transform="translate(0,108)"><foreignObject width="182.328125" height="24"><div xmlns="http://www.w3.org/1999/xhtml" style="display: table-cell; white-space: nowrap; line-height: 1.5; max-width: 220px; text-align: center;"><span class="nodeLabel markdown-node-label" style=""><p>+readonly height? : string</p></span></div></foreignObject></g><g class="label" style="" transform="translate(0,132)"><foreignObject width="240.4375" height="24"><div xmlns="http://www.w3.org/1999/xhtml" style="display: table-cell; white-space: nowrap; line-height: 1.5; max-width: 277px; text-align: center;"><span class="nodeLabel markdown-node-label" style=""><p>+readonly showLegend? : boolean</p></span></div></foreignObject></g><g class="label" style="" transform="translate(0,156)"><foreignObject width="381.8125" height="24"><div xmlns="http://www.w3.org/1999/xhtml" style="display: table-cell; white-space: nowrap; line-height: 1.5; max-width: 389px; text-align: center;"><span class="nodeLabel markdown-node-label" style=""><p>+readonly legendPosition? : 'top'|'bottom'|'left'|'right'</p></span></div></foreignObject></g><g class="label" style="" transform="translate(0,180)"><foreignObject width="208.34375" height="24"><div xmlns="http://www.w3.org/1999/xhtml" style="display: table-cell; white-space: nowrap; line-height: 1.5; max-width: 244px; text-align: center;"><span class="nodeLabel markdown-node-label" style=""><p>+readonly stacked? : boolean</p></span></div></foreignObject></g><g class="label" style="" transform="translate(0,204)"><foreignObject width="235.4375" height="24"><div xmlns="http://www.w3.org/1999/xhtml" style="display: table-cell; white-space: nowrap; line-height: 1.5; max-width: 268px; text-align: center;"><span class="nodeLabel markdown-node-label" style=""><p>+readonly aspectRatio? : number</p></span></div></foreignObject></g><g class="label" style="" transform="translate(0,228)"><foreignObject width="301.5625" height="24"><div xmlns="http://www.w3.org/1999/xhtml" style="display: table-cell; white-space: nowrap; line-height: 1.5; max-width: 331px; text-align: center;"><span class="nodeLabel markdown-node-label" style=""><p>+readonly maintainAspectRatio? : boolean</p></span></div></foreignObject></g></g><g class="methods-group text" transform="translate(-225.84765625, 192)"/><g class="divider" style=""><path d="M-237.84765625 -120 C-97.24791146062589 -119.99970443319265, 43.35183332874823 -119.99940886638528, 237.84765625 -119.999 M-237.84765625 -120 C-100.51273292442477 -119.99971129645444, 36.822190401150465 -119.99942259290887, 237.84765625 -119.999" stroke="#999" stroke-width="1.3" fill="none" stroke-dasharray="0 0" style=""/></g><g class="divider" style=""><path d="M-237.84765625 168 C-124.92360542813577 168.00023738735248, -11.999554606271545 168.00047477470497, 237.84765625 168.001 M-237.84765625 168 C-121.31616972946314 168.00024497085312, -4.784683208926282 168.0004899417062, 237.84765625 168.001" stroke="#999" stroke-width="1.3" fill="none" stroke-dasharray="0 0" style=""/></g></g><g class="node default" id="my-svg-classId-ChartWidgetType-1" data-look="classic" transform="translate(2331.921875, 92)"><g class="basic label-container outer-path"><path d="M-134.96484375 -84 L134.96484375 -84 L134.96484375 84 L-134.96484375 84" stroke="none" stroke-width="0" fill="#eee" style=""/><path d="M-134.96484375 -84 C-80.82503435244442 -84, -26.685224954888852 -84, 134.96484375 -84 M-134.96484375 -84 C-44.9882580730213 -84, 44.9883276039574 -84, 134.96484375 -84 M134.96484375 -84 C134.96484375 -24.544693581809206, 134.96484375 34.91061283638159, 134.96484375 84 M134.96484375 -84 C134.96484375 -33.56445903414409, 134.96484375 16.871081931711814, 134.96484375 84 M134.96484375 84 C60.062299381949686 84, -14.840244986100629 84, -134.96484375 84 M134.96484375 84 C62.11647076893283 84, -10.731902212134344 84, -134.96484375 84 M-134.96484375 84 C-134.96484375 45.36461243817827, -134.96484375 6.72922487635654, -134.96484375 -84 M-134.96484375 84 C-134.96484375 17.13122841166893, -134.96484375 -49.73754317666214, -134.96484375 -84" stroke="#999" stroke-width="1.3" fill="none" stroke-dasharray="0 0" style=""/></g><g class="annotation-group text" transform="translate(-24.328125, -60)"><g class="label" style="" transform="translate(0,-12)"><foreignObject width="48.65625" height="24"><div xmlns="http://www.w3.org/1999/xhtml" style="display: table-cell; white-space: nowrap; line-height: 1.5; max-width: 94px; text-align: center;"><span class="nodeLabel markdown-node-label" style=""><p>«type»</p></span></div></foreignObject></g></g><g class="label-group text" transform="translate(-64.1953125, -36)"><g class="label" style="font-weight: bolder" transform="translate(0,-12)"><foreignObject width="128.390625" height="24"><div xmlns="http://www.w3.org/1999/xhtml" style="display: table-cell; white-space: nowrap; line-height: 1.5; max-width: 164px; text-align: center;"><span class="nodeLabel markdown-node-label" style=""><p>ChartWidgetType</p></span></div></foreignObject></g></g><g class="members-group text" transform="translate(-122.96484375, 12)"><g class="label" style="" transform="translate(0,-12)"><foreignObject width="181.734375" height="24"><div xmlns="http://www.w3.org/1999/xhtml" style="display: table-cell; white-space: nowrap; line-height: 1.5; max-width: 202px; text-align: center;"><span class="nodeLabel markdown-node-label" style=""><p>'bar' | 'line' | 'doughnut' |</p></span></div></foreignObject></g><g class="label" style="" transform="translate(0,12)"><foreignObject width="181.390625" height="24"><div xmlns="http://www.w3.org/1999/xhtml" style="display: table-cell; white-space: nowrap; line-height: 1.5; max-width: 206px; text-align: center;"><span class="nodeLabel markdown-node-label" style=""><p>'pie' | 'radar' | 'polarArea'</p></span></div></foreignObject></g></g><g class="methods-group text" transform="translate(-122.96484375, 84)"/><g class="divider" style=""><path d="M-134.96484375 -12 C-51.34110054370892 -11.999690201755943, 32.28264266258216 -11.999380403511887, 134.96484375 -11.999 M-134.96484375 -12 C-63.800917757249294 -11.999736361247805, 7.363008235501411 -11.99947272249561, 134.96484375 -11.999" stroke="#999" stroke-width="1.3" fill="none" stroke-dasharray="0 0" style=""/></g><g class="divider" style=""><path d="M-134.96484375 60 C-32.3335423033448 60.000380214945594, 70.2977591433104 60.00076042989118, 134.96484375 60.001 M-134.96484375 60 C-57.414372251716316 60.000287298785906, 20.13609924656737 60.000574597571806, 134.96484375 60.001" stroke="#999" stroke-width="1.3" fill="none" stroke-dasharray="0 0" style=""/></g></g><g class="node default" id="my-svg-classId-ChartWidgetDataset-2" data-look="classic" transform="translate(2331.921875, 468)"><g class="basic label-container outer-path"><path d="M-177.91796875 -156 L177.91796875 -156 L177.91796875 156 L-177.91796875 156" stroke="none" stroke-width="0" fill="#eee" style=""/><path d="M-177.91796875 -156 C-39.10926592074341 -156, 99.69943690851318 -156, 177.91796875 -156 M-177.91796875 -156 C-78.00442138189895 -156, 21.9091259862021 -156, 177.91796875 -156 M177.91796875 -156 C177.91796875 -49.42684673934622, 177.91796875 57.146306521307565, 177.91796875 156 M177.91796875 -156 C177.91796875 -69.30997268260599, 177.91796875 17.380054634788024, 177.91796875 156 M177.91796875 156 C54.21179759658919 156, -69.49437355682161 156, -177.91796875 156 M177.91796875 156 C52.27120192593409 156, -73.37556489813181 156, -177.91796875 156 M-177.91796875 156 C-177.91796875 51.78672545574997, -177.91796875 -52.42654908850005, -177.91796875 -156 M-177.91796875 156 C-177.91796875 75.33610344498734, -177.91796875 -5.327793110025311, -177.91796875 -156" stroke="#999" stroke-width="1.3" fill="none" stroke-dasharray="0 0" style=""/></g><g class="annotation-group text" transform="translate(-41.171875, -132)"><g class="label" style="" transform="translate(0,-12)"><foreignObject width="82.34375" height="24"><div xmlns="http://www.w3.org/1999/xhtml" style="display: table-cell; white-space: nowrap; line-height: 1.5; max-width: 122px; text-align: center;"><span class="nodeLabel markdown-node-label" style=""><p>«interface»</p></span></div></foreignObject></g></g><g class="label-group text" transform="translate(-74.4296875, -108)"><g class="label" style="font-weight: bolder" transform="translate(0,-12)"><foreignObject width="148.859375" height="24"><div xmlns="http://www.w3.org/1999/xhtml" style="display: table-cell; white-space: nowrap; line-height: 1.5; max-width: 181px; text-align: center;"><span class="nodeLabel markdown-node-label" style=""><p>ChartWidgetDataset</p></span></div></foreignObject></g></g><g class="members-group text" transform="translate(-165.91796875, -60)"><g class="label" style="" transform="translate(0,-12)"><foreignObject width="166.796875" height="24"><div xmlns="http://www.w3.org/1999/xhtml" style="display: table-cell; white-space: nowrap; line-height: 1.5; max-width: 204px; text-align: center;"><span class="nodeLabel markdown-node-label" style=""><p>+readonly label : string</p></span></div></foreignObject></g><g class="label" style="" transform="translate(0,12)"><foreignObject width="256.40625" height="24"><div xmlns="http://www.w3.org/1999/xhtml" style="display: table-cell; white-space: nowrap; line-height: 1.5; max-width: 283px; text-align: center;"><span class="nodeLabel markdown-node-label" style=""><p>+readonly data : readonly number[]</p></span></div></foreignObject></g><g class="label" style="" transform="translate(0,36)"><foreignObject width="207.21875" height="24"><div xmlns="http://www.w3.org/1999/xhtml" style="display: table-cell; white-space: nowrap; line-height: 1.5; max-width: 239px; text-align: center;"><span class="nodeLabel markdown-node-label" style=""><p>+readonly type? : 'bar' | 'line'</p></span></div></foreignObject></g><g class="label" style="" transform="translate(0,60)"><foreignObject width="257.40625" height="24"><div xmlns="http://www.w3.org/1999/xhtml" style="display: table-cell; white-space: nowrap; line-height: 1.5; max-width: 292px; text-align: center;"><span class="nodeLabel markdown-node-label" style=""><p>+readonly backgroundColor? : string</p></span></div></foreignObject></g><g class="label" style="" transform="translate(0,84)"><foreignObject width="222.4375" height="24"><div xmlns="http://www.w3.org/1999/xhtml" style="display: table-cell; white-space: nowrap; line-height: 1.5; max-width: 259px; text-align: center;"><span class="nodeLabel markdown-node-label" style=""><p>+readonly borderColor? : string</p></span></div></foreignObject></g><g class="label" style="" transform="translate(0,108)"><foreignObject width="173.40625" height="24"><div xmlns="http://www.w3.org/1999/xhtml" style="display: table-cell; white-space: nowrap; line-height: 1.5; max-width: 214px; text-align: center;"><span class="nodeLabel markdown-node-label" style=""><p>+readonly fill? : boolean</p></span></div></foreignObject></g><g class="label" style="" transform="translate(0,132)"><foreignObject width="203.609375" height="24"><div xmlns="http://www.w3.org/1999/xhtml" style="display: table-cell; white-space: nowrap; line-height: 1.5; max-width: 240px; text-align: center;"><span class="nodeLabel markdown-node-label" style=""><p>+readonly tension? : number</p></span></div></foreignObject></g><g class="label" style="" transform="translate(0,156)"><foreignObject width="187.828125" height="24"><div xmlns="http://www.w3.org/1999/xhtml" style="display: table-cell; white-space: nowrap; line-height: 1.5; max-width: 236px; text-align: center;"><span class="nodeLabel markdown-node-label" style=""><p>+readonly yAxisID? : string</p></span></div></foreignObject></g></g><g class="methods-group text" transform="translate(-165.91796875, 156)"/><g class="divider" style=""><path d="M-177.91796875 -84 C-85.89351436275011 -83.99974138515903, 6.130940024499779 -83.99948277031807, 177.91796875 -83.999 M-177.91796875 -84 C-91.9271966100597 -83.999758341519, -5.936424470119391 -83.99951668303801, 177.91796875 -83.999" stroke="#999" stroke-width="1.3" fill="none" stroke-dasharray="0 0" style=""/></g><g class="divider" style=""><path d="M-177.91796875 132 C-46.747696647904604 132.00036862570155, 84.42257545419079 132.00073725140314, 177.91796875 132.001 M-177.91796875 132 C-82.90183019994564 132.00026702232276, 12.114308350108729 132.00053404464552, 177.91796875 132.001" stroke="#999" stroke-width="1.3" fill="none" stroke-dasharray="0 0" style=""/></g></g><g class="node default" id="my-svg-classId-CssVarReader-3" data-look="classic" transform="translate(577.4140625, 137)"><g class="basic label-container outer-path"><path d="M-158.7265625 -75 L158.7265625 -75 L158.7265625 75 L-158.7265625 75" stroke="none" stroke-width="0" fill="#eee" style=""/><path d="M-158.7265625 -75 C-65.51452552985384 -75, 27.697511440292317 -75, 158.7265625 -75 M-158.7265625 -75 C-95.00226044248306 -75, -31.277958384966126 -75, 158.7265625 -75 M158.7265625 -75 C158.7265625 -16.873499631469507, 158.7265625 41.25300073706099, 158.7265625 75 M158.7265625 -75 C158.7265625 -35.09321656320223, 158.7265625 4.8135668735955335, 158.7265625 75 M158.7265625 75 C40.16316356360434 75, -78.40023537279131 75, -158.7265625 75 M158.7265625 75 C32.83906575681952 75, -93.04843098636096 75, -158.7265625 75 M-158.7265625 75 C-158.7265625 16.631322359464903, -158.7265625 -41.737355281070194, -158.7265625 -75 M-158.7265625 75 C-158.7265625 18.535800241873787, -158.7265625 -37.928399516252426, -158.7265625 -75" stroke="#999" stroke-width="1.3" fill="none" stroke-dasharray="0 0" style=""/></g><g class="annotation-group text" transform="translate(-24.328125, -51)"><g class="label" style="" transform="translate(0,-12)"><foreignObject width="48.65625" height="24"><div xmlns="http://www.w3.org/1999/xhtml" style="display: table-cell; white-space: nowrap; line-height: 1.5; max-width: 94px; text-align: center;"><span class="nodeLabel markdown-node-label" style=""><p>«type»</p></span></div></foreignObject></g></g><g class="label-group text" transform="translate(-50.25, -27)"><g class="label" style="font-weight: bolder" transform="translate(0,-12)"><foreignObject width="100.5" height="24"><div xmlns="http://www.w3.org/1999/xhtml" style="display: table-cell; white-space: nowrap; line-height: 1.5; max-width: 141px; text-align: center;"><span class="nodeLabel markdown-node-label" style=""><p>CssVarReader</p></span></div></foreignObject></g></g><g class="members-group text" transform="translate(-146.7265625, 21)"/><g class="methods-group text" transform="translate(-146.7265625, 51)"><g class="label" style="" transform="translate(0,-12)"><foreignObject width="243.203125" height="24"><div xmlns="http://www.w3.org/1999/xhtml" style="display: table-cell; white-space: nowrap; line-height: 1.5; max-width: 271px; text-align: center;"><span class="nodeLabel markdown-node-label" style=""><p>+signature :(name: string) : string</p></span></div></foreignObject></g></g><g class="divider" style=""><path d="M-158.7265625 -3 C-62.617686892391475 -2.9996972501826606, 33.49118871521705 -2.999394500365321, 158.7265625 -2.999 M-158.7265625 -3 C-89.32698445497981 -2.9997813863761933, -19.927406409959616 -2.9995627727523866, 158.7265625 -2.999" stroke="#999" stroke-width="1.3" fill="none" stroke-dasharray="0 0" style=""/></g><g class="divider" style=""><path d="M-158.7265625 21 C-79.26958375622227 21.000250295153794, 0.18739498755545014 21.000500590307585, 158.7265625 21.001 M-158.7265625 21 C-92.57454042185248 21.00020838359074, -26.42251834370495 21.000416767181473, 158.7265625 21.001" stroke="#999" stroke-width="1.3" fill="none" stroke-dasharray="0 0" style=""/></g></g><g class="node default" id="my-svg-classId-CHART_PALETTE_TOKENS-4" data-look="classic" transform="translate(3190.703125, 356)"><g class="basic label-container outer-path"><path d="M-172.9296875 -156 L172.9296875 -156 L172.9296875 156 L-172.9296875 156" stroke="none" stroke-width="0" fill="#eee" style=""/><path d="M-172.9296875 -156 C-63.944737250317004 -156, 45.04021299936599 -156, 172.9296875 -156 M-172.9296875 -156 C-50.1737841264476 -156, 72.5821192471048 -156, 172.9296875 -156 M172.9296875 -156 C172.9296875 -36.69835477437226, 172.9296875 82.60329045125548, 172.9296875 156 M172.9296875 -156 C172.9296875 -35.16374720123531, 172.9296875 85.67250559752938, 172.9296875 156 M172.9296875 156 C95.76338351680967 156, 18.597079533619336 156, -172.9296875 156 M172.9296875 156 C43.24167994697518 156, -86.44632760604964 156, -172.9296875 156 M-172.9296875 156 C-172.9296875 91.84787760839245, -172.9296875 27.695755216784903, -172.9296875 -156 M-172.9296875 156 C-172.9296875 39.488152873311805, -172.9296875 -77.02369425337639, -172.9296875 -156" stroke="#999" stroke-width="1.3" fill="none" stroke-dasharray="0 0" style=""/></g><g class="annotation-group text" transform="translate(-27.4296875, -132)"><g class="label" style="" transform="translate(0,-12)"><foreignObject width="54.859375" height="24"><div xmlns="http://www.w3.org/1999/xhtml" style="display: table-cell; white-space: nowrap; line-height: 1.5; max-width: 100px; text-align: center;"><span class="nodeLabel markdown-node-label" style=""><p>«const»</p></span></div></foreignObject></g></g><g class="label-group text" transform="translate(-95.703125, -108)"><g class="label" style="font-weight: bolder" transform="translate(0,-12)"><foreignObject width="191.40625" height="24"><div xmlns="http://www.w3.org/1999/xhtml" style="display: table-cell; white-space: nowrap; line-height: 1.5; max-width: 250px; text-align: center;"><span class="nodeLabel markdown-node-label" style=""><p>CHART_PALETTE_TOKENS</p></span></div></foreignObject></g></g><g class="members-group text" transform="translate(-160.9296875, -60)"><g class="label" style="" transform="translate(0,-12)"><foreignObject width="210.390625" height="24"><div xmlns="http://www.w3.org/1999/xhtml" style="display: table-cell; white-space: nowrap; line-height: 1.5; max-width: 246px; text-align: center;"><span class="nodeLabel markdown-node-label" style=""><p>+slot0 : ep-color-primary-500</p></span></div></foreignObject></g><g class="label" style="" transform="translate(0,12)"><foreignObject width="220.21875" height="24"><div xmlns="http://www.w3.org/1999/xhtml" style="display: table-cell; white-space: nowrap; line-height: 1.5; max-width: 252px; text-align: center;"><span class="nodeLabel markdown-node-label" style=""><p>+slot1 : ep-color-palmetto-500</p></span></div></foreignObject></g><g class="label" style="" transform="translate(0,36)"><foreignObject width="226.15625" height="24"><div xmlns="http://www.w3.org/1999/xhtml" style="display: table-cell; white-space: nowrap; line-height: 1.5; max-width: 259px; text-align: center;"><span class="nodeLabel markdown-node-label" style=""><p>+slot2 : ep-color-jessamine-500</p></span></div></foreignObject></g><g class="label" style="" transform="translate(0,60)"><foreignObject width="210.390625" height="24"><div xmlns="http://www.w3.org/1999/xhtml" style="display: table-cell; white-space: nowrap; line-height: 1.5; max-width: 246px; text-align: center;"><span class="nodeLabel markdown-node-label" style=""><p>+slot3 : ep-color-primary-700</p></span></div></foreignObject></g><g class="label" style="" transform="translate(0,84)"><foreignObject width="220.21875" height="24"><div xmlns="http://www.w3.org/1999/xhtml" style="display: table-cell; white-space: nowrap; line-height: 1.5; max-width: 252px; text-align: center;"><span class="nodeLabel markdown-node-label" style=""><p>+slot4 : ep-color-palmetto-700</p></span></div></foreignObject></g><g class="label" style="" transform="translate(0,108)"><foreignObject width="226.15625" height="24"><div xmlns="http://www.w3.org/1999/xhtml" style="display: table-cell; white-space: nowrap; line-height: 1.5; max-width: 259px; text-align: center;"><span class="nodeLabel markdown-node-label" style=""><p>+slot5 : ep-color-jessamine-700</p></span></div></foreignObject></g><g class="label" style="" transform="translate(0,132)"><foreignObject width="210.390625" height="24"><div xmlns="http://www.w3.org/1999/xhtml" style="display: table-cell; white-space: nowrap; line-height: 1.5; max-width: 246px; text-align: center;"><span class="nodeLabel markdown-node-label" style=""><p>+slot6 : ep-color-primary-300</p></span></div></foreignObject></g><g class="label" style="" transform="translate(0,156)"><foreignObject width="220.21875" height="24"><div xmlns="http://www.w3.org/1999/xhtml" style="display: table-cell; white-space: nowrap; line-height: 1.5; max-width: 252px; text-align: center;"><span class="nodeLabel markdown-node-label" style=""><p>+slot7 : ep-color-palmetto-300</p></span></div></foreignObject></g></g><g class="methods-group text" transform="translate(-160.9296875, 156)"/><g class="divider" style=""><path d="M-172.9296875 -84 C-84.26619071424773 -83.99974364292775, 4.397306071504545 -83.9994872858555, 172.9296875 -83.999 M-172.9296875 -84 C-63.727554062596894 -83.99968425857058, 45.47457937480621 -83.99936851714118, 172.9296875 -83.999" stroke="#999" stroke-width="1.3" fill="none" stroke-dasharray="0 0" style=""/></g><g class="divider" style=""><path d="M-172.9296875 132 C-94.36933365663778 132.00022714536462, -15.808979813275556 132.00045429072927, 172.9296875 132.001 M-172.9296875 132 C-57.66172569353027 132.00033327985344, 57.606236112939456 132.00066655970687, 172.9296875 132.001" stroke="#999" stroke-width="1.3" fill="none" stroke-dasharray="0 0" style=""/></g></g><g class="node undefined" id="my-svg-note0" data-look="classic" transform="translate(577.4140625, 280)"><g class="basic label-container outer-path"><path d="M-569.4140625 -18 L569.4140625 -18 L569.4140625 18 L-569.4140625 18" stroke="none" stroke-width="0" fill="#666" style="fill:#666 !important;stroke:#999 !important"/><path d="M-569.4140625 -18 C-192.66235337018924 -18, 184.08935575962153 -18, 569.4140625 -18 M-569.4140625 -18 C-270.6036668602743 -18, 28.206728779451396 -18, 569.4140625 -18 M569.4140625 -18 C569.4140625 -8.556589082014735, 569.4140625 0.8868218359705295, 569.4140625 18 M569.4140625 -18 C569.4140625 -9.86316763002261, 569.4140625 -1.7263352600452215, 569.4140625 18 M569.4140625 18 C173.3350280734453 18, -222.7440063531094 18, -569.4140625 18 M569.4140625 18 C232.37553037949766 18, -104.66300174100468 18, -569.4140625 18 M-569.4140625 18 C-569.4140625 4.568778350798397, -569.4140625 -8.862443298403207, -569.4140625 -18 M-569.4140625 18 C-569.4140625 4.597018702845439, -569.4140625 -8.805962594309122, -569.4140625 -18" stroke="#999" stroke-width="1.3" fill="none" stroke-dasharray="0 0" style="fill:#666 !important;stroke:#999 !important"/></g><g class="label noteLabel" style="text-align:left !important;white-space:nowrap !important" transform="translate(-563.4140625, -12)"><rect/><foreignObject width="1126.828125" height="24"><div style="text-align: center; white-space: break-spaces; display: table; line-height: 1.5; max-width: 200px; width: 200px;" xmlns="http://www.w3.org/1999/xhtml"><span style="text-align:left !important;white-space:nowrap !important" class="nodeLabel markdown-node-label"><p>Mixed-type charts: when type='bar'/'line',\nper-dataset .type overrides per row.\nReads ep-* tokens at runtime via\nCssVarReader so dark-mode flips re-skin.</p></span></div></foreignObject></g></g><g class="node undefined" id="my-svg-note1" data-look="classic" transform="translate(2331.921875, 244)"><g class="basic label-container outer-path"><path d="M-527.1640625 -18 L527.1640625 -18 L527.1640625 18 L-527.1640625 18" stroke="none" stroke-width="0" fill="#666" style="fill:#666 !important;stroke:#999 !important"/><path d="M-527.1640625 -18 C-226.41307082585575 -18, 74.33792084828849 -18, 527.1640625 -18 M-527.1640625 -18 C-227.28386218949225 -18, 72.59633812101549 -18, 527.1640625 -18 M527.1640625 -18 C527.1640625 -5.039734411358907, 527.1640625 7.920531177282186, 527.1640625 18 M527.1640625 -18 C527.1640625 -9.432926697513706, 527.1640625 -0.8658533950274112, 527.1640625 18 M527.1640625 18 C207.60609565592523 18, -111.95187118814954 18, -527.1640625 18 M527.1640625 18 C307.71745549366915 18, 88.27084848733836 18, -527.1640625 18 M-527.1640625 18 C-527.1640625 4.374046163687741, -527.1640625 -9.251907672624519, -527.1640625 -18 M-527.1640625 18 C-527.1640625 9.233466836209173, -527.1640625 0.46693367241834594, -527.1640625 -18" stroke="#999" stroke-width="1.3" fill="none" stroke-dasharray="0 0" style="fill:#666 !important;stroke:#999 !important"/></g><g class="label noteLabel" style="text-align:left !important;white-space:nowrap !important" transform="translate(-521.1640625, -12)"><rect/><foreignObject width="1042.328125" height="24"><div style="text-align: center; white-space: break-spaces; display: table; line-height: 1.5; max-width: 200px; width: 200px;" xmlns="http://www.w3.org/1999/xhtml"><span style="text-align:left !important;white-space:nowrap !important" class="nodeLabel markdown-node-label"><p>Default 8-color palette keyed off the\nplatform's brand tokens. paletteColor()\nresolves at runtime from the host element's\ngetComputedStyle.</p></span></div></foreignObject></g></g></g></g></g><defs><filter id="my-svg-drop-shadow" height="130%" width="130%"><feDropShadow dx="4" dy="4" stdDeviation="0" flood-opacity="0.06" flood-color="#000000"/></filter></defs><defs><filter id="my-svg-drop-shadow-small" height="150%" width="150%"><feDropShadow dx="2" dy="2" stdDeviation="0" flood-opacity="0.06" flood-color="#000000"/></filter></defs><linearGradient id="my-svg-gradient" gradientUnits="objectBoundingBox" x1="0%" y1="0%" x2="100%" y2="0%"><stop offset="0%" stop-color="hsl(0, 0%, 83.3333333333%)" stop-opacity="1"/><stop offset="100%" stop-color="hsl(0, 0%, 88.9215686275%)" stop-opacity="1"/></linearGradient><text text-anchor="middle" x="1685.81640625" y="-25" class="classDiagramTitleText">DPH UI Kit — Chart Widget (Chart.js wrapper)</text></svg>